<?xml version="1.0" encoding="UTF-8" standalone="no"?>
<svg xmlns="http://www.w3.org/2000/svg" width="16" height="16" viewBox="4 2 248 248" version="1.1">
  <style>
    rect { fill: #111111; }
    @media (prefers-color-scheme: dark) { rect { fill: #eeeeee; } }
   </style>
   <g>
      <rect width="198" height="24" x="29" y="23" rx="12" ry="12" />
      <rect width="50" height="24" x="25" y="54" rx="12" ry="12" />
      <rect width="50" height="24" x="181" y="54" rx="12" ry="12" />
      <rect width="86" height="24" x="25" y="85" rx="12" ry="12" />
      <rect width="86" height="24" x="145" y="85" rx="12" ry="12" />
      <rect width="86" height="24" x="25" y="116" rx="12" ry="12" />
      <rect width="86" height="24" x="145" y="116" rx="12" ry="12" />
      <rect width="86" height="24" x="25" y="147" rx="12" ry="12" />
      <rect width="86" height="24" x="145" y="147" rx="12" ry="12" />
      <rect width="86" height="24" x="25" y="178" rx="12" ry="12" />
      <rect width="86" height="24" x="145" y="178" rx="12" ry="12" />
      <rect width="198" height="24" x="29" y="209" rx="12" ry="12" />
   </g>
</svg>